<svg xmlns="http://www.w3.org/2000/svg" xmlns:xlink="http://www.w3.org/1999/xlink" viewBox="0 0 3143.37 617"><defs><style>.cls-1{isolation:isolate;}.cls-2{fill:#fff;}.cls-3{fill:url(#linear-gradient);}</style><linearGradient id="linear-gradient" x1="-2013.68" y1="1026.58" x2="-2005.42" y2="1015.21" gradientTransform="matrix(0, 31.57, 30, 0, -30247.79, 63716.32)" gradientUnits="userSpaceOnUse"><stop offset="0" stop-color="#55b7ff"></stop><stop offset="0.51" stop-color="#3037da"></stop><stop offset="1" stop-color="#1f123e"></stop></linearGradient></defs><g id="Layer_2" data-name="Layer 2"><g id="Layer_1-2" data-name="Layer 1"><g id="Group_277" data-name="Group 277"><g id="Planet_Finance" data-name="Planet Finance" class="cls-1"><g class="cls-1"><path class="cls-2" d="M878.73,192.88h71.58c28.63,0,52.61,2.66,71.58,12.65,21,11,39,31.63,39,64.26,0,29.63-14.32,50.94-34.63,62.92-18.64,11-42.62,15-77.91,15H931.66v86.23H878.73ZM951,304.75c21,0,33-1,41.95-6,9.65-5.32,15-14.31,15-26.3,0-13.65-6-23.3-17-28.3-9.66-4.33-22.64-5-41.29-5h-18v65.59Z"></path><path class="cls-2" d="M1090.47,179.56h50.61V433.93h-50.61Z"></path><path class="cls-2" d="M1275.26,423.94c-10.66,7.66-27,13.65-45.62,13.65-14,0-27.3-3.33-38-10.65-12-8.32-19.31-21.31-19.31-38.29,0-18,8.32-31.63,20-39.62,12.66-8.66,29-11.65,46-11.65a131.45,131.45,0,0,1,28.3,3v-6.32c0-8-2.66-14-6.32-17.32-4.67-4.32-13.32-7-25.31-7-18.31,0-35,6-47.94,13V279.11c13.32-6.66,33.29-12.65,57.26-12.65,22,0,41.62,5,54.61,15.65,12.32,10,18.31,24.64,18.31,45.28V383c0,7.66,3,13,10,13a19.09,19.09,0,0,0,8.32-2v37.95c-5.66,3-14.65,5-24.3,5-13.32,0-26.31-3.67-35.3-13Zm-8.66-54.27c-5.33-1.66-12.65-2.33-18-2.33-13,0-26,4-26,16.65,0,10.65,9.33,16.31,21,16.31a45.4,45.4,0,0,0,23-6.66Z"></path><path class="cls-2" d="M1361.82,270.12h49.94v15l.67.34c12.65-10.32,30-19,50.6-19,17.32,0,32.63,6,43,16.65,10,10.65,14.32,25,14.32,48.61V433.93h-50.61V340c0-12.32-1.66-18.31-5.66-23-4.33-5-10.32-7-17.31-7-13,0-25.31,6.66-34.29,13.66v110.2h-50.61Z"></path><path class="cls-2" d="M1603.2,365.34c5.66,22.64,24.3,33,47.61,33,18.31,0,38.29-6.33,55.6-18v42.28c-16,10-40.62,15-62.26,15-53.94,0-92.89-33.62-92.89-84.9,0-52.27,40.62-86.23,85.9-86.23,40.28,0,78.24,26.63,78.24,81.57a134,134,0,0,1-1,17.31Zm65.59-32c-3-17.65-16-28.3-32.3-28.3-15.65,0-29.3,9.66-33.63,28.3Z"></path><path class="cls-2" d="M1851.57,428.6c-7.65,5-22.64,9-37,9-16.65,0-32.3-5.32-42.62-16.31-8.66-9.32-14.32-23-14.32-48.94V312.07h-26.63V270.12h26.63V227.5l50.61-8.65v51.27h43.28v41.95h-43.28V367c0,16,3.66,28,19,28,8.32,0,17.64-3.33,24.3-6.66Z"></path><path class="cls-2" d="M1961.77,192.88h152.82v46.28h-99.88V291.1h85.9v43.95h-85.9v98.88h-52.94Z"></path><path class="cls-2" d="M2174.52,189.21c16,0,29.3,13,29.3,29s-13.32,29-29.3,29-29.3-13-29.3-29S2158.54,189.21,2174.52,189.21Zm-25.31,80.91h50.61V433.93h-50.61Z"></path><path class="cls-2" d="M2241.77,270.12h49.94v15l.67.34c12.65-10.32,30-19,50.61-19,17.31,0,32.63,6,43,16.65,10,10.65,14.31,25,14.31,48.61V433.93h-50.6V340c0-12.32-1.67-18.31-5.66-23-4.33-5-10.33-7-17.32-7-13,0-25.3,6.66-34.29,13.66v110.2h-50.61Z"></path><path class="cls-2" d="M2533.76,423.94c-10.65,7.66-27,13.65-45.61,13.65-14,0-27.31-3.33-38-10.65-12-8.32-19.31-21.31-19.31-38.29,0-18,8.32-31.63,20-39.62,12.65-8.66,29-11.65,45.94-11.65a131.45,131.45,0,0,1,28.3,3v-6.32c0-8-2.66-14-6.32-17.32-4.67-4.32-13.32-7-25.31-7-18.31,0-35,6-47.94,13V279.11c13.32-6.66,33.29-12.65,57.27-12.65,22,0,41.61,5,54.6,15.65,12.32,10,18.31,24.64,18.31,45.28V383c0,7.66,3,13,10,13a19.09,19.09,0,0,0,8.32-2v37.95c-5.66,3-14.65,5-24.3,5-13.32,0-26.31-3.67-35.29-13Zm-8.66-54.27c-5.32-1.66-12.65-2.33-18-2.33-13,0-26,4-26,16.65,0,10.65,9.33,16.31,21,16.31a45.37,45.37,0,0,0,23-6.66Z"></path><path class="cls-2" d="M2620.32,270.12h49.94v15l.67.34c12.65-10.32,30-19,50.6-19,17.32,0,32.63,6,42.95,16.65,10,10.65,14.32,25,14.32,48.61V433.93h-50.61V340c0-12.32-1.66-18.31-5.66-23-4.33-5-10.32-7-17.31-7-13,0-25.3,6.66-34.29,13.66v110.2h-50.61Z"></path><path class="cls-2" d="M2954.92,424.94c-15.64,8.66-35,12.65-53.6,12.65-52.61,0-91.23-36-91.23-85.23,0-51.61,42.62-85.9,93.89-85.9,18.31,0,35.3,4.33,48.61,11v46.94c-14.65-9.32-30.63-15.31-46.28-15.31-27,0-45.61,18.31-45.61,42.95,0,25,19,42.61,46.28,42.61,16,0,34.29-6,47.94-16.31Z"></path><path class="cls-2" d="M3031.17,365.34c5.66,22.64,24.3,33,47.61,33,18.31,0,38.29-6.33,55.6-18v42.28c-16,10-40.62,15-62.26,15-53.94,0-92.89-33.62-92.89-84.9,0-52.27,40.62-86.23,85.9-86.23,40.28,0,78.24,26.63,78.24,81.57a134,134,0,0,1-1,17.31Zm65.59-32c-3-17.65-16-28.3-32.3-28.3-15.65,0-29.3,9.66-33.63,28.3Z"></path></g></g><ellipse id="Ellipse_31-2" data-name="Ellipse 31-2" class="cls-3" cx="324.59" cy="308.5" rx="308.45" ry="324.63" transform="translate(-0.47 616.5) rotate(-87)"></ellipse></g></g></g></svg>